<?xml version="1.0" encoding="UTF-8" standalone="no"?>
<!DOCTYPE svg PUBLIC "-//W3C//DTD SVG 1.1//EN" "http://www.w3.org/Graphics/SVG/1.1/DTD/svg11.dtd">
<svg width="100%" height="100%" viewBox="0 0 14 27" version="1.1" xmlns="http://www.w3.org/2000/svg" xmlns:xlink="http://www.w3.org/1999/xlink" xml:space="preserve" xmlns:serif="http://www.serif.com/" style="fill-rule:evenodd;clip-rule:evenodd;stroke-linecap:round;stroke-linejoin:round;stroke-miterlimit:1.5;">
    <g transform="matrix(1,0,0,1,-5.96887,3.03113)">
        <g transform="matrix(0.321494,0,0,0.321494,9.67851,0.678506)">
            <path d="M1.36,65.817L1,65.457L1,59.36L1.36,59L18.64,59L19,59.36L19,65.457L18.64,65.817L1.36,65.817Z" style="fill:none;stroke:black;stroke-width:3.11px;"/>
        </g>
        <g transform="matrix(0.321494,0,0,0.321494,9.67851,0.678506)">
            <path d="M13.217,23.212C13.217,22.439 12.939,21.727 12.479,21.169C11.886,20.453 10.992,19.994 10,19.994C8.235,19.994 6.782,21.447 6.782,23.212L6.783,23.212L6.783,36.711L6.782,36.712C6.782,38.477 8.235,39.929 10,39.929C11.765,39.929 13.217,38.477 13.217,36.712L13.217,36.711L13.217,23.212L13.217,23.212Z" style="fill-rule:nonzero;"/>
        </g>
        <g transform="matrix(0.321494,0,0,0.321494,9.67851,0.678506)">
            <path d="M1,3.412L1,57.411L19,57.411L19,3.412C16.264,1.832 13.159,1 10,1C6.841,1 3.736,1.832 1,3.412Z" style="fill:none;fill-rule:nonzero;stroke:black;stroke-width:3.11px;stroke-linejoin:miter;stroke-miterlimit:8;"/>
        </g>
    </g>
</svg>
