<svg width="20" height="67" viewBox="0 0 20 67" fill="none" xmlns="http://www.w3.org/2000/svg">
<path d="M1 3.41157L1 57.4112L19 57.4112L19 3.41157C16.2638 1.83185 13.1594 1 10 1C6.84056 1 3.73605 1.83185 1 3.41157Z" stroke="white" stroke-width="0.5" stroke-miterlimit="8" stroke-linecap="round"/>
<path d="M19 65.4575L18.6401 65.8173H1.36005L1 65.4575H19V59.3599L18.6401 59H1.36005L1 59.3599L19 59.3599" fill="white"/>
<path d="M19 65.4575L18.6401 65.8173H1.36005L1 65.4575M19 65.4575H1M19 65.4575V59.3599M1 65.4575L1 59.3599M1 59.3599L1.36005 59H18.6401L19 59.3599M1 59.3599L19 59.3599" stroke="white" stroke-width="0.5" stroke-linecap="round" stroke-linejoin="round"/>
<path d="M13.2173 23.2115C13.2173 22.4392 12.9392 21.7266 12.4785 21.1694C11.8862 20.4534 10.9924 19.9941 9.99991 19.9941C8.23478 19.9941 6.78238 21.4465 6.78238 23.2115L6.78253 23.2117L6.78253 36.7113L6.78238 36.7116C6.78238 38.4766 8.23478 39.9291 9.99991 39.9291C11.7649 39.9291 13.2173 38.4766 13.2173 36.7116L13.2175 36.7113L13.2175 23.2117L13.2173 23.2115Z" stroke="white" stroke-linecap="round" stroke-linejoin="round"/>
</svg>
