<?xml version="1.0" encoding="UTF-8" standalone="no"?><!DOCTYPE svg PUBLIC "-//W3C//DTD SVG 1.1//EN" "http://www.w3.org/Graphics/SVG/1.1/DTD/svg11.dtd"><svg width="100%" height="100%" viewBox="0 0 24 24" version="1.1" xmlns="http://www.w3.org/2000/svg" xmlns:xlink="http://www.w3.org/1999/xlink" xml:space="preserve" xmlns:serif="http://www.serif.com/" style="fill-rule:evenodd;clip-rule:evenodd;stroke-linecap:round;stroke-linejoin:round;stroke-miterlimit:1.5;"><g id="GEOSTIX"><path d="M8.982,23.322L8.856,23.196L8.856,21.066L8.982,20.94L15.018,20.94L15.144,21.066L15.144,23.196L15.018,23.322L8.982,23.322Z" style="fill:none;stroke:black;stroke-width:1.09px;"/><path d="M13.124,8.438C13.124,8.168 13.027,7.919 12.865,7.724C12.659,7.474 12.347,7.314 12.001,7.314C11.383,7.314 10.876,7.821 10.876,8.438L10.876,13.153C10.876,13.771 11.383,14.278 12.001,14.278C12.617,14.278 13.124,13.771 13.124,13.153L13.124,8.438Z" style="fill:none;fill-rule:nonzero;stroke:black;stroke-width:1px;stroke-linecap:butt;stroke-miterlimit:2;"/><path d="M15.144,19.5L15.144,1.52C14.188,0.969 13.103,0.678 12.001,0.678C10.897,0.678 9.812,0.969 8.856,1.52L8.856,19.5" style="fill:none;fill-rule:nonzero;stroke:black;stroke-width:1.09px;stroke-linejoin:miter;stroke-miterlimit:8;"/></g></svg>