<?xml version="1.0" encoding="UTF-8" standalone="no"?><!DOCTYPE svg PUBLIC "-//W3C//DTD SVG 1.1//EN" "http://www.w3.org/Graphics/SVG/1.1/DTD/svg11.dtd"><svg width="100%" height="100%" viewBox="0 0 24 24" version="1.1" xmlns="http://www.w3.org/2000/svg" xmlns:xlink="http://www.w3.org/1999/xlink" xml:space="preserve" xmlns:serif="http://www.serif.com/" style="fill-rule:evenodd;clip-rule:evenodd;stroke-linejoin:round;stroke-miterlimit:2;"><g id="LOGO-GEOBSYS" serif:id="LOGO GEOBSYS"><path d="M18.238,21.797C18.203,21.952 18.154,22.163 17.305,22.595C17.231,22.63 17.159,22.663 17.088,22.694C17.047,22.713 17.004,22.732 16.96,22.753C16.693,22.872 16.404,22.992 16.168,23.092C15.742,23.234 15.471,23.323 15.268,23.387C15.249,23.39 15.229,23.396 15.21,23.402C15.01,23.452 14.749,23.516 14.374,23.609C13.878,23.689 13.559,23.741 13.272,23.776C13.264,23.778 13.256,23.778 13.251,23.778C12.931,23.809 12.592,23.824 12.002,23.847L11.99,23.847C11.516,23.828 11.218,23.816 10.999,23.805C10.964,23.803 10.929,23.801 10.895,23.797C10.6,23.77 10.308,23.731 10.021,23.683C9.571,23.59 9.29,23.534 9.084,23.485C9.079,23.485 9.071,23.483 9.065,23.481C8.792,23.412 8.521,23.332 8.256,23.245C8.25,23.243 8.244,23.241 8.236,23.237C7.936,23.125 7.574,22.982 7.24,22.841C8.839,23.495 9.524,23.3 9.764,23.232C10.416,23.046 11.245,22.81 12.132,22.574C14.034,22.066 16.19,21.56 17.377,21.56C17.82,21.56 18.128,21.631 18.238,21.797Z" style="fill-rule:nonzero;"/><path d="M1.507,6.751L1.476,6.811C1.457,6.852 1.437,6.892 1.42,6.933C1.143,7.525 0.953,7.969 0.756,8.511C0.671,8.755 0.594,8.999 0.53,9.225C0.516,9.27 0.504,9.314 0.493,9.359C0.413,9.678 0.365,9.974 0.307,10.333L0.208,11.095C0.832,8.131 3.718,8.654 11.868,10.923C12.697,11.155 13.582,11.403 14.523,11.668C20.121,13.246 23.792,14.061 23.792,11.126L23.77,10.966L23.707,10.464C23.697,10.391 23.685,10.317 23.67,10.244C23.556,9.697 23.44,9.194 23.269,8.61C23.165,8.286 23.047,7.969 22.917,7.659C22.894,7.607 22.872,7.554 22.849,7.502C22.839,7.483 22.832,7.461 22.822,7.442C22.814,7.423 22.805,7.403 22.797,7.386C22.78,7.347 22.762,7.31 22.744,7.274C22.731,7.241 22.713,7.206 22.696,7.171C22.681,7.138 22.665,7.107 22.652,7.078C22.615,6.999 22.576,6.921 22.535,6.842C22.526,6.825 22.516,6.807 22.506,6.79C23.658,9.498 19.337,8.635 11.882,6.621C11.344,6.478 10.79,6.327 10.219,6.17C7.976,5.555 6.126,5.047 4.657,5.048C3.267,5.048 2.22,5.502 1.507,6.751Z" style="fill-rule:nonzero;"/><path d="M10.86,0.217C10.85,0.219 10.84,0.219 10.831,0.221C10.769,0.229 10.705,0.237 10.641,0.244C9.084,0.461 7.48,1.013 5.842,1.934C5.34,2.235 4.847,2.579 4.363,2.963C6.184,1.59 7.857,2.058 9.477,2.513C10.293,2.742 11.115,2.968 11.928,3.185C17.349,4.627 22.238,5.589 20.023,3.284C19.972,3.241 19.92,3.197 19.87,3.154C18.509,2.023 17.057,1.187 15.533,0.684C15.518,0.678 15.504,0.674 15.491,0.67C14.394,0.331 13.246,0.153 12.077,0.153C11.674,0.153 11.267,0.174 10.86,0.217Z" style="fill-rule:nonzero;"/><path d="M23.25,15.74C23.157,15.985 23.049,16.284 22.934,16.566C22.866,16.735 22.797,16.897 22.729,17.04C22.493,17.496 22.305,17.879 22.015,18.339C21.982,18.392 21.949,18.442 21.914,18.496C21.897,18.525 21.879,18.55 21.86,18.578C21.699,18.816 21.509,19.077 21.271,19.379C21.244,19.416 21.217,19.449 21.194,19.476C21.161,19.515 21.136,19.548 21.113,19.575C21.099,19.592 21.087,19.608 21.078,19.619C21.49,19.042 22.584,17.505 18.265,18.134C16.159,18.442 14.13,19.077 12.091,19.673C10.205,20.225 8.314,20.746 6.345,20.943C4.38,21.141 3.397,20.111 2.977,19.672L2.857,19.521C2.855,19.517 2.851,19.513 2.849,19.509L2.531,19.112C2.528,19.106 2.522,19.101 2.52,19.095C2.477,19.042 2.439,18.988 2.4,18.934C2.394,18.928 2.39,18.922 2.388,18.916C2.165,18.591 2.017,18.369 1.902,18.193C1.898,18.185 1.895,18.179 1.891,18.173C1.736,17.917 1.589,17.654 1.451,17.385C1.446,17.375 1.442,17.366 1.438,17.356C1.231,16.905 0.986,16.334 0.807,15.871C0.803,15.86 0.799,15.848 0.795,15.836C1.806,18.206 3.133,18.012 12.14,15.608C12.732,15.451 13.357,15.283 14.018,15.107C16.269,14.502 19.159,13.728 21.123,13.728C22.709,13.728 23.692,14.232 23.25,15.74Z" style="fill-rule:nonzero;"/></g></svg>