<?xml version="1.0" encoding="UTF-8" standalone="no"?><!DOCTYPE svg PUBLIC "-//W3C//DTD SVG 1.1//EN" "http://www.w3.org/Graphics/SVG/1.1/DTD/svg11.dtd"><svg width="100%" height="100%" viewBox="0 0 24 24" version="1.1" xmlns="http://www.w3.org/2000/svg" xmlns:xlink="http://www.w3.org/1999/xlink" xml:space="preserve" xmlns:serif="http://www.serif.com/" style="fill-rule:evenodd;clip-rule:evenodd;stroke-linecap:round;stroke-linejoin:round;stroke-miterlimit:1.5;"><g id="GEOSTIX"><path d="M8.982,23.322L8.856,23.196L8.856,21.066L8.982,20.94L15.018,20.94L15.144,21.066L15.144,23.196L15.018,23.322L8.982,23.322Z" style="fill:none;stroke:black;stroke-width:1px;"/><path d="M15.144,19.5L8.856,19.5L8.856,1.52C9.812,0.969 10.897,0.678 12.001,0.678C13.103,0.678 14.188,0.969 15.144,1.52L15.144,19.5ZM13.123,8.492C13.123,8.228 13.028,7.985 12.87,7.794C12.668,7.549 12.362,7.392 12.023,7.392C11.419,7.392 10.923,7.889 10.923,8.492L10.923,13.108C10.923,13.711 11.419,14.208 12.023,14.208C12.626,14.208 13.123,13.711 13.123,13.108L13.123,8.492Z" style="fill:none;stroke:black;stroke-width:0.92px;stroke-linejoin:miter;stroke-miterlimit:8;"/></g></svg>