<?xml version="1.0" encoding="UTF-8" standalone="no"?><!DOCTYPE svg PUBLIC "-//W3C//DTD SVG 1.1//EN" "http://www.w3.org/Graphics/SVG/1.1/DTD/svg11.dtd"><svg width="100%" height="100%" viewBox="0 0 24 24" version="1.1" xmlns="http://www.w3.org/2000/svg" xmlns:xlink="http://www.w3.org/1999/xlink" xml:space="preserve" xmlns:serif="http://www.serif.com/" style="fill-rule:evenodd;clip-rule:evenodd;stroke-linecap:round;stroke-linejoin:round;stroke-miterlimit:2;"><g id="SMARTPHONE"><path d="M17.977,2.583L17.977,21.417C17.977,22.677 16.954,23.7 15.694,23.7L8.306,23.7C7.046,23.7 6.023,22.677 6.023,21.417L6.023,2.583C6.023,1.323 7.046,0.3 8.306,0.3L15.694,0.3C16.954,0.3 17.977,1.323 17.977,2.583ZM16.237,2.758C16.237,2.321 15.883,1.967 15.446,1.967L8.487,1.967C8.051,1.967 7.696,2.321 7.696,2.758L7.696,21.105C7.696,21.542 8.051,21.896 8.487,21.896L15.446,21.896C15.883,21.896 16.237,21.542 16.237,21.105L16.237,2.758Z"/><g id="doigtIncliné"><path d="M15.527,16.82L14.935,13.629L18.386,12.698C18.386,12.698 17.851,12.118 18.513,11.555C19.175,10.992 19.668,11.716 19.668,11.716L20.096,12.22C20.096,12.22 21.016,13.233 21.599,14.333C22.04,15.164 22.526,16.259 22.925,17.229C23.099,17.652 22.98,18.139 22.632,18.436L20.582,20.179C20.205,20.498 19.658,20.516 19.263,20.22C18.997,20.021 18.702,19.815 18.483,19.706C17.8,19.365 17.249,19.193 17.249,19.193L13.307,17.706C13.307,17.706 12.558,17.457 12.865,16.645C13.172,15.832 13.954,16.226 13.954,16.226L15.527,16.82L15.527,16.82ZM15.527,16.82L12.043,12.722C12.043,12.722 11.509,12.142 12.17,11.579C12.832,11.016 13.326,11.74 13.326,11.74L14.935,13.629L15.527,16.82ZM16.66,13.163L14.935,13.629C14.935,13.629 14.401,13.048 15.062,12.486C15.724,11.923 16.217,12.647 16.217,12.647L16.66,13.163ZM16.66,13.163C16.66,13.163 16.126,12.583 16.788,12.02C17.449,11.458 17.943,12.182 17.943,12.182L18.386,12.698L16.66,13.163Z"/><path d="M11.065,10.406L9.939,9.082" style="fill:none;stroke:black;stroke-width:1px;"/><path d="M10.85,13.509L9.527,14.634" style="fill:none;stroke:black;stroke-width:1px;"/><path d="M14.241,10.626L15.565,9.501" style="fill:none;stroke:black;stroke-width:1px;"/><path d="M12.64,9.806L12.78,8.074" style="fill:none;stroke:black;stroke-width:1px;"/><path d="M10.299,11.796L8.567,11.656" style="fill:none;stroke:black;stroke-width:1px;"/></g></g></svg>