<?xml version="1.0" encoding="UTF-8" standalone="no"?><!DOCTYPE svg PUBLIC "-//W3C//DTD SVG 1.1//EN" "http://www.w3.org/Graphics/SVG/1.1/DTD/svg11.dtd"><svg width="100%" height="100%" viewBox="0 0 24 24" version="1.1" xmlns="http://www.w3.org/2000/svg" xmlns:xlink="http://www.w3.org/1999/xlink" xml:space="preserve" xmlns:serif="http://www.serif.com/" style="fill-rule:evenodd;clip-rule:evenodd;stroke-linecap:round;stroke-linejoin:round;"><path d="M13.528,8.954C13.528,8.593 13.398,8.259 13.182,7.999C12.905,7.664 12.487,7.449 12.023,7.449C11.197,7.449 10.518,8.128 10.518,8.954L10.518,8.954L10.518,15.269L10.518,15.269C10.518,16.095 11.197,16.775 12.023,16.775C12.848,16.775 13.528,16.095 13.528,15.269L13.528,15.269L13.528,8.954L13.528,8.954Z" style="fill:none;fill-rule:nonzero;stroke:black;stroke-width:0.96px;"/><path d="M8.592,20.625L15.408,20.625" style="fill:none;stroke:black;stroke-width:0.96px;stroke-linecap:butt;stroke-linejoin:miter;"/><path d="M15.408,20.625L15.408,23L8.592,23L8.592,20.625" style="fill:none;stroke:black;stroke-width:0.96px;stroke-linecap:butt;stroke-linejoin:miter;"/><path d="M8.628,20.17L8.628,4.953L15.372,4.953L15.372,20.17" style="fill:none;stroke:black;stroke-width:0.96px;stroke-linecap:butt;stroke-linejoin:miter;"/><path d="M8.865,4.702L8.865,4.098L15.148,4.098L15.148,4.702" style="fill:none;stroke:black;stroke-width:0.96px;stroke-linecap:butt;stroke-linejoin:miter;"/><path d="M9.471,3.619L9.471,1L14.568,1L14.568,3.619" style="fill:none;stroke:black;stroke-width:0.96px;stroke-linecap:butt;stroke-linejoin:miter;"/></svg>