<?xml version="1.0" encoding="UTF-8" standalone="no"?>
<!DOCTYPE svg PUBLIC "-//W3C//DTD SVG 1.1//EN" "http://www.w3.org/Graphics/SVG/1.1/DTD/svg11.dtd">
<svg width="100%" height="100%" viewBox="0 0 62 62" version="1.1" xmlns="http://www.w3.org/2000/svg" xmlns:xlink="http://www.w3.org/1999/xlink" xml:space="preserve" xmlns:serif="http://www.serif.com/" style="fill-rule:evenodd;clip-rule:evenodd;stroke-linejoin:round;stroke-miterlimit:2;">
    <g transform="matrix(1,0,0,1,-2.92703,-2.74937)">
        <g transform="matrix(0.596652,0,0,0.596652,-100.884,-61.0351)">
            <path d="M179.652,135.67L179.518,135.932C179.434,136.11 179.349,136.286 179.273,136.463C178.066,139.046 177.239,140.979 176.379,143.342C176.007,144.405 175.67,145.469 175.391,146.456C175.332,146.651 175.281,146.844 175.231,147.039C174.885,148.431 174.674,149.722 174.42,151.284L173.99,154.609C176.708,141.688 189.292,143.966 224.824,153.859C228.436,154.871 232.293,155.951 236.395,157.107C260.803,163.987 276.805,167.54 276.805,154.744L276.712,154.044L276.434,151.858C276.392,151.537 276.341,151.216 276.274,150.896C275.776,148.515 275.27,146.321 274.526,143.773C274.071,142.363 273.556,140.979 272.99,139.628C272.889,139.4 272.796,139.172 272.695,138.945C272.653,138.86 272.619,138.767 272.577,138.684C272.543,138.599 272.501,138.514 272.467,138.439C272.392,138.269 272.315,138.109 272.239,137.949C272.18,137.805 272.104,137.653 272.028,137.501C271.961,137.358 271.893,137.224 271.834,137.096C271.674,136.75 271.505,136.413 271.328,136.067C271.286,135.991 271.244,135.915 271.201,135.839C276.223,147.646 257.385,143.882 224.883,135.104C222.537,134.48 220.123,133.822 217.632,133.138C207.856,130.457 199.788,128.243 193.383,128.244C187.326,128.244 182.759,130.226 179.652,135.67Z" style="fill:white;fill-rule:nonzero;"/>
        </g>
        <g transform="matrix(0.596652,0,0,0.596652,-100.884,-61.0351)">
            <path d="M274.443,174.857C274.038,175.928 273.565,177.228 273.067,178.46C272.771,179.195 272.468,179.904 272.172,180.528C271.143,182.512 270.324,184.183 269.058,186.191C268.915,186.419 268.771,186.639 268.619,186.875C268.543,187.002 268.467,187.111 268.383,187.23C267.682,188.268 266.855,189.407 265.817,190.724C265.698,190.884 265.581,191.028 265.48,191.146C265.336,191.315 265.226,191.458 265.125,191.576C265.066,191.652 265.015,191.72 264.973,191.771C266.771,189.255 271.539,182.554 252.709,185.297C243.527,186.639 234.682,189.407 225.795,192.006C217.574,194.412 209.328,196.682 200.745,197.543C192.179,198.404 187.891,193.915 186.06,191.999L185.536,191.34C185.528,191.323 185.511,191.306 185.503,191.289L184.118,189.559C184.102,189.534 184.076,189.509 184.068,189.483C183.882,189.255 183.714,189.019 183.545,188.782C183.518,188.757 183.502,188.732 183.494,188.706C182.523,187.289 181.874,186.319 181.376,185.551C181.359,185.516 181.342,185.491 181.325,185.466C180.65,184.351 180.008,183.204 179.409,182.03C179.385,181.988 179.367,181.946 179.35,181.905C178.447,179.938 177.383,177.448 176.599,175.43C176.582,175.381 176.565,175.329 176.548,175.279C180.954,185.609 186.743,184.765 226.006,174.283C228.589,173.599 231.315,172.866 234.193,172.097C244.009,169.463 256.607,166.085 265.171,166.085C272.084,166.085 276.37,168.286 274.443,174.857Z" style="fill:white;fill-rule:nonzero;"/>
        </g>
        <g transform="matrix(0.596652,0,0,0.596652,-100.884,-61.0351)">
            <path d="M220.427,107.185C220.384,107.194 220.342,107.194 220.3,107.202C220.03,107.236 219.751,107.27 219.473,107.303C212.687,108.249 205.691,110.654 198.551,114.671C196.364,115.98 194.212,117.483 192.103,119.154C200.044,113.17 207.336,115.212 214.4,117.195C217.954,118.191 221.541,119.178 225.085,120.124C248.717,126.411 270.029,130.606 260.374,120.554C260.153,120.368 259.924,120.174 259.706,119.989C253.773,115.06 247.443,111.414 240.801,109.22C240.733,109.194 240.674,109.177 240.615,109.16C235.836,107.681 230.829,106.904 225.735,106.904C223.975,106.904 222.202,106.997 220.427,107.185Z" style="fill:white;fill-rule:nonzero;"/>
        </g>
        <g transform="matrix(0.596652,0,0,0.596652,-100.884,-61.0351)">
            <path d="M252.591,201.266C252.438,201.94 252.228,202.86 248.523,204.742C248.202,204.894 247.89,205.038 247.578,205.173C247.401,205.257 247.215,205.342 247.021,205.434C245.856,205.949 244.599,206.473 243.569,206.911C241.712,207.528 240.53,207.916 239.644,208.195C239.56,208.211 239.475,208.236 239.391,208.263C238.522,208.481 237.382,208.76 235.745,209.165C233.584,209.511 232.192,209.739 230.943,209.891C230.909,209.899 230.875,209.899 230.851,209.899C229.457,210.034 227.98,210.102 225.406,210.203L225.355,210.203C223.288,210.119 221.988,210.068 221.034,210.018C220.882,210.01 220.73,210.001 220.578,209.984C219.296,209.866 218.021,209.697 216.772,209.486C214.806,209.08 213.582,208.836 212.687,208.625C212.662,208.625 212.628,208.616 212.603,208.608C211.413,208.304 210.231,207.958 209.075,207.579C209.05,207.57 209.024,207.561 208.99,207.544C207.682,207.056 206.103,206.431 204.644,205.814C211.615,208.667 214.603,207.815 215.65,207.519C218.494,206.709 222.106,205.68 225.972,204.65C234.265,202.437 243.663,200.232 248.84,200.232C250.769,200.232 252.112,200.539 252.591,201.266Z" style="fill:white;fill-rule:nonzero;"/>
        </g>
    </g>
</svg>
