<?xml version="1.0" encoding="UTF-8" standalone="no"?>
<!DOCTYPE svg PUBLIC "-//W3C//DTD SVG 1.1//EN" "http://www.w3.org/Graphics/SVG/1.1/DTD/svg11.dtd">
<svg width="100%" height="100%" viewBox="0 0 560 62" version="1.1" xmlns="http://www.w3.org/2000/svg" xmlns:xlink="http://www.w3.org/1999/xlink" xml:space="preserve" xmlns:serif="http://www.serif.com/" style="fill-rule:evenodd;clip-rule:evenodd;stroke-linejoin:round;stroke-miterlimit:2;">
    <g transform="matrix(1,0,0,1,-2.92703,-2.74937)">
        <g transform="matrix(0.596652,0,0,0.596652,-100.884,-61.0351)">
            <path d="M179.652,135.67L179.518,135.932C179.434,136.11 179.349,136.286 179.273,136.463C178.066,139.046 177.239,140.979 176.379,143.342C176.007,144.405 175.67,145.469 175.391,146.456C175.332,146.651 175.281,146.844 175.231,147.039C174.885,148.431 174.674,149.722 174.42,151.284L173.99,154.609C176.708,141.688 189.292,143.966 224.824,153.859C228.436,154.871 232.293,155.951 236.395,157.107C260.803,163.987 276.805,167.54 276.805,154.744L276.712,154.044L276.434,151.858C276.392,151.537 276.341,151.216 276.274,150.896C275.776,148.515 275.27,146.321 274.526,143.773C274.071,142.363 273.556,140.979 272.99,139.628C272.889,139.4 272.796,139.172 272.695,138.945C272.653,138.86 272.619,138.767 272.577,138.684C272.543,138.599 272.501,138.514 272.467,138.439C272.392,138.269 272.315,138.109 272.239,137.949C272.18,137.805 272.104,137.653 272.028,137.501C271.961,137.358 271.893,137.224 271.834,137.096C271.674,136.75 271.505,136.413 271.328,136.067C271.286,135.991 271.244,135.915 271.201,135.839C276.223,147.646 257.385,143.882 224.883,135.104C222.537,134.48 220.123,133.822 217.632,133.138C207.856,130.457 199.788,128.243 193.383,128.244C187.326,128.244 182.759,130.226 179.652,135.67Z" style="fill:rgb(64,64,64);fill-rule:nonzero;"/>
        </g>
        <g transform="matrix(0.596652,0,0,0.596652,-100.884,-61.0351)">
            <path d="M274.443,174.857C274.038,175.928 273.565,177.228 273.067,178.46C272.771,179.195 272.468,179.904 272.172,180.528C271.143,182.512 270.324,184.183 269.058,186.191C268.915,186.419 268.771,186.639 268.619,186.875C268.543,187.002 268.467,187.111 268.383,187.23C267.682,188.268 266.855,189.407 265.817,190.724C265.698,190.884 265.581,191.028 265.48,191.146C265.336,191.315 265.226,191.458 265.125,191.576C265.066,191.652 265.015,191.72 264.973,191.771C266.771,189.255 271.539,182.554 252.709,185.297C243.527,186.639 234.682,189.407 225.795,192.006C217.574,194.412 209.328,196.682 200.745,197.543C192.179,198.404 187.891,193.915 186.06,191.999L185.536,191.34C185.528,191.323 185.511,191.306 185.503,191.289L184.118,189.559C184.102,189.534 184.076,189.509 184.068,189.483C183.882,189.255 183.714,189.019 183.545,188.782C183.518,188.757 183.502,188.732 183.494,188.706C182.523,187.289 181.874,186.319 181.376,185.551C181.359,185.516 181.342,185.491 181.325,185.466C180.65,184.351 180.008,183.204 179.409,182.03C179.385,181.988 179.367,181.946 179.35,181.905C178.447,179.938 177.383,177.448 176.599,175.43C176.582,175.381 176.565,175.329 176.548,175.279C180.954,185.609 186.743,184.765 226.006,174.283C228.589,173.599 231.315,172.866 234.193,172.097C244.009,169.463 256.607,166.085 265.171,166.085C272.084,166.085 276.37,168.286 274.443,174.857Z" style="fill:rgb(64,64,64);fill-rule:nonzero;"/>
        </g>
        <g transform="matrix(0.596652,0,0,0.596652,-100.884,-61.0351)">
            <path d="M220.427,107.185C220.384,107.194 220.342,107.194 220.3,107.202C220.03,107.236 219.751,107.27 219.473,107.303C212.687,108.249 205.691,110.654 198.551,114.671C196.364,115.98 194.212,117.483 192.103,119.154C200.044,113.17 207.336,115.212 214.4,117.195C217.954,118.191 221.541,119.178 225.085,120.124C248.717,126.411 270.029,130.606 260.374,120.554C260.153,120.368 259.924,120.174 259.706,119.989C253.773,115.06 247.443,111.414 240.801,109.22C240.733,109.194 240.674,109.177 240.615,109.16C235.836,107.681 230.829,106.904 225.735,106.904C223.975,106.904 222.202,106.997 220.427,107.185Z" style="fill:rgb(64,64,64);fill-rule:nonzero;"/>
        </g>
        <g transform="matrix(0.596652,0,0,0.596652,-100.884,-61.0351)">
            <path d="M252.591,201.266C252.438,201.94 252.228,202.86 248.523,204.742C248.202,204.894 247.89,205.038 247.578,205.173C247.401,205.257 247.215,205.342 247.021,205.434C245.856,205.949 244.599,206.473 243.569,206.911C241.712,207.528 240.53,207.916 239.644,208.195C239.56,208.211 239.475,208.236 239.391,208.263C238.522,208.481 237.382,208.76 235.745,209.165C233.584,209.511 232.192,209.739 230.943,209.891C230.909,209.899 230.875,209.899 230.851,209.899C229.457,210.034 227.98,210.102 225.406,210.203L225.355,210.203C223.288,210.119 221.988,210.068 221.034,210.018C220.882,210.01 220.73,210.001 220.578,209.984C219.296,209.866 218.021,209.697 216.772,209.486C214.806,209.08 213.582,208.836 212.687,208.625C212.662,208.625 212.628,208.616 212.603,208.608C211.413,208.304 210.231,207.958 209.075,207.579C209.05,207.57 209.024,207.561 208.99,207.544C207.682,207.056 206.103,206.431 204.644,205.814C211.615,208.667 214.603,207.815 215.65,207.519C218.494,206.709 222.106,205.68 225.972,204.65C234.265,202.437 243.663,200.232 248.84,200.232C250.769,200.232 252.112,200.539 252.591,201.266Z" style="fill:rgb(64,64,64);fill-rule:nonzero;"/>
        </g>
        <g transform="matrix(0.633991,0,0,0.633991,-115.987,-64.7257)">
            <path d="M358.558,164.268C358.558,162.86 359.262,162.156 360.67,162.156L365.614,162.156C366.19,162.156 366.702,162.34 367.15,162.708C367.598,163.076 367.822,163.596 367.822,164.268L367.822,185.724C367.822,186.108 367.742,186.468 367.582,186.804C367.422,187.14 367.15,187.42 366.766,187.644L366.382,187.932C363.374,190.108 360.062,191.78 356.446,192.948C352.83,194.116 348.926,194.7 344.734,194.7C341.342,194.7 338.086,194.268 334.966,193.404C331.846,192.54 328.934,191.308 326.23,189.708C323.526,188.108 321.062,186.196 318.838,183.972C316.614,181.748 314.71,179.284 313.126,176.58C311.542,173.876 310.318,170.964 309.454,167.844C308.59,164.724 308.158,161.468 308.158,158.076C308.158,154.716 308.59,151.484 309.454,148.38C310.318,145.276 311.55,142.364 313.15,139.644C314.75,136.924 316.662,134.444 318.886,132.204C321.11,129.964 323.574,128.044 326.278,126.444C328.982,124.844 331.894,123.604 335.014,122.724C338.134,121.844 341.39,121.404 344.782,121.404C348.718,121.404 352.51,122.004 356.158,123.204C359.806,124.404 363.214,126.124 366.382,128.364C366.734,128.62 367.022,128.916 367.246,129.252C367.47,129.588 367.582,129.932 367.582,130.284C367.582,130.732 367.454,131.116 367.198,131.436L364.654,135.66C364.11,136.428 363.55,136.812 362.974,136.812C362.75,136.812 362.502,136.756 362.23,136.644C361.958,136.532 361.646,136.348 361.294,136.092C358.99,134.46 356.486,133.172 353.782,132.228C351.078,131.284 348.19,130.812 345.118,130.812C341.15,130.812 337.478,131.564 334.102,133.068C330.726,134.572 327.798,136.588 325.318,139.116C322.838,141.644 320.894,144.556 319.486,147.852C318.078,151.148 317.374,154.588 317.374,158.172C317.374,161.98 318.094,165.54 319.534,168.852C320.974,172.164 322.926,175.044 325.39,177.492C327.854,179.94 330.726,181.868 334.006,183.276C337.286,184.684 340.782,185.388 344.494,185.388C346.83,185.388 349.158,185.012 351.478,184.26C353.798,183.508 356.158,182.62 358.558,181.596L358.558,164.268Z" style="fill:rgb(64,64,64);fill-rule:nonzero;"/>
        </g>
        <g transform="matrix(0.633991,0,0,0.633991,-115.987,-64.7257)">
            <path d="M429.454,122.364C430.926,122.364 431.662,123.132 431.662,124.668L431.662,129.42C431.662,130.028 431.478,130.556 431.11,131.004C430.742,131.452 430.158,131.676 429.358,131.676L390.67,131.676L390.67,151.404L421.102,151.404C421.678,151.404 422.174,151.572 422.59,151.908C423.006,152.244 423.214,152.812 423.214,153.612L423.214,158.508C423.214,159.084 423.038,159.596 422.686,160.044C422.334,160.492 421.806,160.716 421.102,160.716L390.67,160.716L390.67,184.332L429.55,184.332C431.022,184.332 431.758,185.084 431.758,186.588L431.758,191.532C431.758,192.94 431.054,193.644 429.646,193.644L383.47,193.644C382.062,193.644 381.358,192.972 381.358,191.628L381.358,124.572C381.358,123.1 382.062,122.364 383.47,122.364L429.454,122.364Z" style="fill:rgb(64,64,64);fill-rule:nonzero;"/>
        </g>
        <g transform="matrix(0.633991,0,0,0.633991,-115.987,-64.7257)">
            <path d="M449.95,157.932C449.95,160.46 450.278,162.884 450.934,165.204C451.59,167.524 452.51,169.7 453.694,171.732C454.878,173.764 456.302,175.612 457.966,177.276C459.63,178.94 461.478,180.364 463.51,181.548C465.542,182.732 467.718,183.652 470.038,184.308C472.358,184.964 474.782,185.292 477.31,185.292C479.806,185.292 482.222,184.964 484.558,184.308C486.894,183.652 489.07,182.732 491.086,181.548C493.102,180.364 494.942,178.94 496.606,177.276C498.27,175.612 499.694,173.764 500.878,171.732C502.062,169.7 502.982,167.524 503.638,165.204C504.294,162.884 504.622,160.46 504.622,157.932C504.622,154.156 503.902,150.612 502.462,147.3C501.022,143.988 499.07,141.1 496.606,138.636C494.142,136.172 491.254,134.22 487.942,132.78C484.63,131.34 481.086,130.62 477.31,130.62C474.782,130.62 472.358,130.948 470.038,131.604C467.718,132.26 465.542,133.18 463.51,134.364C461.478,135.548 459.63,136.972 457.966,138.636C456.302,140.3 454.878,142.14 453.694,144.156C452.51,146.172 451.59,148.348 450.934,150.684C450.278,153.02 449.95,155.436 449.95,157.932ZM477.406,121.404C480.766,121.404 484.006,121.836 487.126,122.7C490.246,123.564 493.158,124.796 495.862,126.396C498.566,127.996 501.038,129.908 503.278,132.132C505.518,134.356 507.43,136.836 509.014,139.572C510.598,142.308 511.83,145.244 512.71,148.38C513.59,151.516 514.03,154.78 514.03,158.172C514.03,161.532 513.598,164.772 512.734,167.892C511.87,171.012 510.638,173.924 509.038,176.628C507.438,179.332 505.526,181.796 503.302,184.02C501.078,186.244 498.606,188.148 495.886,189.732C493.166,191.316 490.238,192.54 487.102,193.404C483.966,194.268 480.702,194.7 477.31,194.7C473.918,194.7 470.662,194.268 467.542,193.404C464.422,192.54 461.51,191.308 458.806,189.708C456.102,188.108 453.638,186.196 451.414,183.972C449.19,181.748 447.286,179.284 445.702,176.58C444.118,173.876 442.894,170.964 442.03,167.844C441.166,164.724 440.734,161.468 440.734,158.076C440.734,154.716 441.166,151.476 442.03,148.356C442.894,145.236 444.126,142.316 445.726,139.596C447.326,136.876 449.238,134.396 451.462,132.156C453.686,129.916 456.158,128.004 458.878,126.42C461.598,124.836 464.518,123.604 467.638,122.724C470.758,121.844 474.014,121.404 477.406,121.404Z" style="fill:rgb(64,64,64);fill-rule:nonzero;"/>
        </g>
        <g transform="matrix(0.633991,0,0,0.633991,-115.987,-64.7257)">
            <path d="M577.39,141.708C577.39,144.46 576.854,147.052 575.782,149.484C574.71,151.916 573.214,153.996 571.294,155.724C572.766,156.588 574.102,157.628 575.302,158.844C576.502,160.06 577.534,161.396 578.398,162.852C579.262,164.308 579.926,165.868 580.39,167.532C580.854,169.196 581.086,170.924 581.086,172.716C581.086,175.5 580.574,178.156 579.55,180.684C578.526,183.212 577.118,185.436 575.326,187.356C573.534,189.276 571.414,190.804 568.966,191.94C566.518,193.076 563.87,193.644 561.022,193.644L529.678,193.644C529.038,193.644 528.51,193.468 528.094,193.116C527.678,192.764 527.47,192.236 527.47,191.532L527.47,124.668C527.47,123.132 528.206,122.364 529.678,122.364L557.854,122.364C560.638,122.364 563.214,122.86 565.582,123.852C567.95,124.844 570.014,126.204 571.774,127.932C573.534,129.66 574.91,131.7 575.902,134.052C576.894,136.404 577.39,138.956 577.39,141.708ZM536.638,161.532L536.638,184.476L560.926,184.476C562.398,184.476 563.79,184.156 565.102,183.516C566.414,182.876 567.558,182.02 568.534,180.948C569.51,179.876 570.278,178.628 570.838,177.204C571.398,175.78 571.678,174.284 571.678,172.716C571.678,171.212 571.398,169.788 570.838,168.444C570.278,167.1 569.518,165.916 568.558,164.892C567.598,163.868 566.462,163.052 565.15,162.444C563.838,161.836 562.43,161.532 560.926,161.532L536.638,161.532ZM567.982,141.708C567.982,140.236 567.734,138.876 567.238,137.628C566.742,136.38 566.038,135.3 565.126,134.388C564.214,133.476 563.134,132.772 561.886,132.276C560.638,131.78 559.262,131.532 557.758,131.532L536.638,131.532L536.638,152.364L557.662,152.364C559.134,152.364 560.502,152.092 561.766,151.548C563.03,151.004 564.118,150.252 565.03,149.292C565.942,148.332 566.662,147.204 567.19,145.908C567.718,144.612 567.982,143.212 567.982,141.708Z" style="fill:rgb(64,64,64);fill-rule:nonzero;"/>
        </g>
        <g transform="matrix(0.633991,0,0,0.633991,-115.987,-64.7257)">
            <path d="M633.454,137.916C633.006,137.628 632.27,137.068 631.246,136.236C630.222,135.404 628.966,134.556 627.478,133.692C625.99,132.828 624.318,132.052 622.462,131.364C620.606,130.676 618.606,130.332 616.462,130.332C613.934,130.332 611.758,130.636 609.934,131.244C608.11,131.852 606.606,132.66 605.422,133.668C604.238,134.676 603.366,135.812 602.806,137.076C602.246,138.34 601.966,139.612 601.966,140.892C601.966,142.684 602.558,144.188 603.742,145.404C604.926,146.62 606.494,147.676 608.446,148.572C610.398,149.468 612.614,150.276 615.094,150.996C617.574,151.716 620.102,152.476 622.678,153.276C625.254,154.076 627.782,154.972 630.262,155.964C632.742,156.956 634.958,158.188 636.91,159.66C638.862,161.132 640.43,162.892 641.614,164.94C642.798,166.988 643.39,169.468 643.39,172.38C643.39,175.74 642.694,178.788 641.302,181.524C639.91,184.26 638.006,186.596 635.59,188.532C633.174,190.468 630.334,191.964 627.07,193.02C623.806,194.076 620.302,194.604 616.558,194.604C614.062,194.604 611.59,194.324 609.142,193.764C606.694,193.204 604.342,192.388 602.086,191.316C599.83,190.244 597.726,188.94 595.774,187.404C593.822,185.868 592.078,184.108 590.542,182.124C590.126,181.612 589.926,181.1 589.942,180.588C589.958,180.076 590.238,179.596 590.782,179.148L594.574,175.98C595.118,175.532 595.646,175.332 596.158,175.38C596.67,175.428 597.134,175.708 597.55,176.22L598.174,176.844C599.518,178.348 601.046,179.652 602.758,180.756C604.47,181.86 606.182,182.772 607.894,183.492C609.606,184.212 611.246,184.748 612.814,185.1C614.382,185.452 615.71,185.628 616.798,185.628C618.75,185.628 620.75,185.372 622.798,184.86C624.846,184.348 626.718,183.564 628.414,182.508C630.11,181.452 631.502,180.116 632.59,178.5C633.678,176.884 634.222,174.988 634.222,172.812C634.222,170.988 633.686,169.444 632.614,168.18C631.542,166.916 630.094,165.812 628.27,164.868C626.446,163.924 624.31,163.076 621.862,162.324C619.414,161.572 616.798,160.78 614.014,159.948C610.174,158.828 606.878,157.652 604.126,156.42C601.374,155.188 599.11,153.828 597.334,152.34C595.558,150.852 594.254,149.188 593.422,147.348C592.59,145.508 592.174,143.436 592.174,141.132C592.174,138.22 592.758,135.556 593.926,133.14C595.094,130.724 596.75,128.636 598.894,126.876C601.038,125.116 603.622,123.748 606.646,122.772C609.67,121.796 613.054,121.308 616.798,121.308C618.814,121.308 620.91,121.564 623.086,122.076C625.262,122.588 627.382,123.3 629.446,124.212C631.51,125.124 633.446,126.212 635.254,127.476C637.062,128.74 638.622,130.14 639.934,131.676C640.382,132.156 640.614,132.66 640.63,133.188C640.646,133.716 640.398,134.22 639.886,134.7L636.478,137.964C635.966,138.444 635.446,138.668 634.918,138.636C634.39,138.604 633.902,138.364 633.454,137.916Z" style="fill:rgb(64,64,64);fill-rule:nonzero;"/>
        </g>
        <g transform="matrix(0.633991,0,0,0.633991,-115.987,-64.7257)">
            <path d="M650.206,124.668C649.758,123.996 649.574,123.444 649.654,123.012C649.734,122.58 650.142,122.364 650.878,122.364L658.654,122.364C658.942,122.396 659.182,122.428 659.374,122.46C659.566,122.492 659.742,122.564 659.902,122.676C660.062,122.788 660.222,122.972 660.382,123.228C660.542,123.484 660.75,123.836 661.006,124.284L678.19,154.092L678.334,154.092L695.854,123.948C696.206,123.308 696.526,122.9 696.814,122.724C697.102,122.548 697.486,122.428 697.966,122.364L705.982,122.364C706.686,122.364 707.038,122.652 707.038,123.228C707.038,123.516 706.862,123.932 706.51,124.476C704.526,127.644 702.558,130.868 700.606,134.148C698.654,137.428 696.71,140.724 694.774,144.036C692.838,147.348 690.886,150.644 688.918,153.924C686.95,157.204 684.958,160.428 682.942,163.596L682.942,191.34C682.942,192.876 682.238,193.644 680.83,193.644L675.694,193.644C674.35,193.644 673.678,192.876 673.678,191.34L673.678,163.836L650.206,124.668Z" style="fill:rgb(64,64,64);fill-rule:nonzero;"/>
        </g>
        <g transform="matrix(0.633991,0,0,0.633991,-115.987,-64.7257)">
            <path d="M757.39,137.916C756.942,137.628 756.206,137.068 755.182,136.236C754.158,135.404 752.902,134.556 751.414,133.692C749.926,132.828 748.254,132.052 746.398,131.364C744.542,130.676 742.542,130.332 740.398,130.332C737.87,130.332 735.694,130.636 733.87,131.244C732.046,131.852 730.542,132.66 729.358,133.668C728.174,134.676 727.302,135.812 726.742,137.076C726.182,138.34 725.902,139.612 725.902,140.892C725.902,142.684 726.494,144.188 727.678,145.404C728.862,146.62 730.43,147.676 732.382,148.572C734.334,149.468 736.55,150.276 739.03,150.996C741.51,151.716 744.038,152.476 746.614,153.276C749.19,154.076 751.718,154.972 754.198,155.964C756.678,156.956 758.894,158.188 760.846,159.66C762.798,161.132 764.366,162.892 765.55,164.94C766.734,166.988 767.326,169.468 767.326,172.38C767.326,175.74 766.63,178.788 765.238,181.524C763.846,184.26 761.942,186.596 759.526,188.532C757.11,190.468 754.27,191.964 751.006,193.02C747.742,194.076 744.238,194.604 740.494,194.604C737.998,194.604 735.526,194.324 733.078,193.764C730.63,193.204 728.278,192.388 726.022,191.316C723.766,190.244 721.662,188.94 719.71,187.404C717.758,185.868 716.014,184.108 714.478,182.124C714.062,181.612 713.862,181.1 713.878,180.588C713.894,180.076 714.174,179.596 714.718,179.148L718.51,175.98C719.054,175.532 719.582,175.332 720.094,175.38C720.606,175.428 721.07,175.708 721.486,176.22L722.11,176.844C723.454,178.348 724.982,179.652 726.694,180.756C728.406,181.86 730.118,182.772 731.83,183.492C733.542,184.212 735.182,184.748 736.75,185.1C738.318,185.452 739.646,185.628 740.734,185.628C742.686,185.628 744.686,185.372 746.734,184.86C748.782,184.348 750.654,183.564 752.35,182.508C754.046,181.452 755.438,180.116 756.526,178.5C757.614,176.884 758.158,174.988 758.158,172.812C758.158,170.988 757.622,169.444 756.55,168.18C755.478,166.916 754.03,165.812 752.206,164.868C750.382,163.924 748.246,163.076 745.798,162.324C743.35,161.572 740.734,160.78 737.95,159.948C734.11,158.828 730.814,157.652 728.062,156.42C725.31,155.188 723.046,153.828 721.27,152.34C719.494,150.852 718.19,149.188 717.358,147.348C716.526,145.508 716.11,143.436 716.11,141.132C716.11,138.22 716.694,135.556 717.862,133.14C719.03,130.724 720.686,128.636 722.83,126.876C724.974,125.116 727.558,123.748 730.582,122.772C733.606,121.796 736.99,121.308 740.734,121.308C742.75,121.308 744.846,121.564 747.022,122.076C749.198,122.588 751.318,123.3 753.382,124.212C755.446,125.124 757.382,126.212 759.19,127.476C760.998,128.74 762.558,130.14 763.87,131.676C764.318,132.156 764.55,132.66 764.566,133.188C764.582,133.716 764.334,134.22 763.822,134.7L760.414,137.964C759.902,138.444 759.382,138.668 758.854,138.636C758.326,138.604 757.838,138.364 757.39,137.916Z" style="fill:rgb(64,64,64);fill-rule:nonzero;"/>
        </g>
        <g transform="matrix(1.5833,0,0,1.5833,-104.974,-234.959)">
            <g transform="matrix(41.2396,0,0,41.2396,423.363,185.178)">
            </g>
            <text x="300.221px" y="185.178px" style="font-family:'Montserrat-Light', 'Montserrat';font-weight:300;font-size:41.24px;fill:rgb(252,0,143);">DOC<tspan x="398.248px " y="185.178px ">S</tspan></text>
        </g>
    </g>
</svg>
