<?xml version="1.0" encoding="UTF-8" standalone="no"?><!DOCTYPE svg PUBLIC "-//W3C//DTD SVG 1.1//EN" "http://www.w3.org/Graphics/SVG/1.1/DTD/svg11.dtd"><svg width="100%" height="100%" viewBox="0 0 560 62" version="1.1" xmlns="http://www.w3.org/2000/svg" xmlns:xlink="http://www.w3.org/1999/xlink" xml:space="preserve" xmlns:serif="http://www.serif.com/" style="fill-rule:evenodd;clip-rule:evenodd;stroke-linejoin:round;stroke-miterlimit:2;"><g><g><path d="M3.379,17.163L3.299,17.32C3.249,17.426 3.198,17.531 3.153,17.636C2.432,19.178 1.939,20.331 1.426,21.741C1.204,22.375 1.003,23.01 0.836,23.599C0.801,23.715 0.771,23.83 0.741,23.947C0.534,24.777 0.409,25.547 0.257,26.479L0,28.463C1.622,20.754 9.13,22.113 30.331,28.016C32.486,28.62 34.787,29.264 37.235,29.954C51.798,34.059 61.345,36.179 61.345,28.544L61.29,28.126L61.124,26.822C61.099,26.63 61.068,26.439 61.028,26.248C60.731,24.827 60.429,23.518 59.985,21.998C59.714,21.157 59.407,20.331 59.069,19.525C59.009,19.389 58.953,19.253 58.893,19.117C58.868,19.067 58.848,19.011 58.823,18.962C58.802,18.911 58.777,18.86 58.757,18.815C58.712,18.714 58.666,18.619 58.621,18.523C58.586,18.437 58.54,18.346 58.495,18.256C58.455,18.17 58.414,18.091 58.379,18.014C58.284,17.808 58.183,17.607 58.077,17.4C58.052,17.355 58.027,17.309 58.002,17.264C60.998,24.309 49.758,22.063 30.366,16.826C28.966,16.453 27.526,16.061 26.04,15.653C20.207,14.053 15.393,12.732 11.571,12.733C7.957,12.733 5.232,13.915 3.379,17.163Z" style="fill:white;fill-rule:nonzero;"/></g><g><path d="M59.936,40.544C59.694,41.183 59.412,41.959 59.115,42.694C58.938,43.133 58.758,43.556 58.581,43.928C57.967,45.112 57.478,46.109 56.723,47.307C56.638,47.443 56.552,47.574 56.461,47.715C56.416,47.791 56.37,47.856 56.32,47.927C55.902,48.546 55.409,49.226 54.789,50.011C54.718,50.107 54.648,50.193 54.588,50.263C54.502,50.364 54.437,50.449 54.376,50.52C54.341,50.565 54.311,50.606 54.286,50.636C55.358,49.135 58.203,45.137 46.968,46.773C41.49,47.574 36.212,49.226 30.91,50.776C26.005,52.212 21.085,53.566 15.964,54.08C10.853,54.594 8.295,51.915 7.202,50.772L6.889,50.379C6.885,50.369 6.874,50.359 6.87,50.348L6.043,49.316C6.034,49.301 6.018,49.286 6.014,49.271C5.903,49.135 5.802,48.994 5.701,48.853C5.685,48.838 5.676,48.823 5.671,48.807C5.092,47.962 4.704,47.383 4.407,46.925C4.397,46.904 4.387,46.889 4.377,46.874C3.974,46.209 3.591,45.525 3.234,44.824C3.219,44.799 3.209,44.774 3.199,44.75C2.66,43.576 2.025,42.09 1.557,40.886C1.547,40.857 1.537,40.826 1.527,40.796C4.156,46.96 7.61,46.456 31.036,40.202C32.577,39.794 34.204,39.356 35.921,38.898C41.777,37.326 49.294,35.31 54.404,35.31C58.528,35.31 61.086,36.624 59.936,40.544Z" style="fill:white;fill-rule:nonzero;"/></g><g><path d="M27.707,0.168C27.682,0.173 27.656,0.173 27.631,0.178C27.47,0.198 27.304,0.218 27.138,0.238C23.089,0.803 18.915,2.237 14.655,4.634C13.35,5.415 12.066,6.312 10.808,7.309C15.546,3.739 19.896,4.957 24.111,6.14C26.232,6.734 28.372,7.323 30.486,7.888C44.586,11.639 57.302,14.142 51.542,8.144C51.41,8.033 51.273,7.918 51.143,7.807C47.603,4.866 43.826,2.691 39.863,1.382C39.823,1.366 39.788,1.356 39.752,1.346C36.901,0.464 33.914,0 30.874,0C29.824,0 28.766,0.056 27.707,0.168Z" style="fill:white;fill-rule:nonzero;"/></g><g><path d="M46.898,56.301C46.807,56.703 46.681,57.252 44.471,58.375C44.279,58.466 44.093,58.552 43.907,58.632C43.801,58.683 43.69,58.733 43.575,58.788C42.879,59.095 42.129,59.408 41.515,59.669C40.407,60.038 39.702,60.269 39.173,60.435C39.123,60.445 39.072,60.46 39.022,60.476C38.504,60.606 37.823,60.773 36.847,61.014C35.557,61.221 34.727,61.357 33.982,61.447C33.961,61.452 33.941,61.452 33.927,61.452C33.095,61.533 32.214,61.573 30.678,61.634L30.647,61.634C29.414,61.583 28.639,61.553 28.069,61.523C27.979,61.518 27.888,61.513 27.797,61.503C27.032,61.432 26.272,61.332 25.526,61.206C24.353,60.964 23.623,60.818 23.089,60.692C23.074,60.692 23.054,60.687 23.039,60.682C22.329,60.501 21.624,60.294 20.934,60.068C20.919,60.063 20.904,60.057 20.883,60.047C20.103,59.756 19.161,59.383 18.29,59.015C22.449,60.717 24.232,60.209 24.857,60.032C26.554,59.549 28.709,58.935 31.016,58.32C35.964,57 41.571,55.684 44.66,55.684C45.811,55.684 46.612,55.868 46.898,56.301Z" style="fill:white;fill-rule:nonzero;"/></g><g><path d="M108.409,36.669C108.409,35.777 108.855,35.33 109.748,35.33L112.882,35.33C113.247,35.33 113.572,35.447 113.856,35.68C114.14,35.914 114.282,36.243 114.282,36.669L114.282,50.272C114.282,50.516 114.231,50.744 114.13,50.957C114.028,51.17 113.856,51.348 113.612,51.49L113.369,51.672C111.462,53.052 109.362,54.112 107.07,54.852C104.777,55.593 102.302,55.963 99.644,55.963C97.494,55.963 95.429,55.689 93.451,55.141C91.473,54.594 89.627,53.812 87.913,52.798C86.199,51.784 84.636,50.572 83.226,49.162C81.816,47.752 80.609,46.189 79.605,44.475C78.601,42.761 77.825,40.915 77.277,38.937C76.729,36.958 76.455,34.894 76.455,32.744C76.455,30.613 76.729,28.564 77.277,26.597C77.825,24.629 78.606,22.782 79.62,21.058C80.635,19.334 81.847,17.761 83.257,16.341C84.667,14.921 86.229,13.704 87.943,12.689C89.658,11.675 91.504,10.889 93.482,10.331C95.46,9.773 97.524,9.494 99.675,9.494C102.17,9.494 104.574,9.874 106.887,10.635C109.2,11.396 111.36,12.486 113.369,13.907C113.592,14.069 113.775,14.257 113.917,14.47C114.059,14.683 114.13,14.901 114.13,15.124C114.13,15.408 114.048,15.651 113.886,15.854L112.273,18.532C111.928,19.019 111.573,19.263 111.208,19.263C111.066,19.263 110.909,19.227 110.737,19.156C110.564,19.085 110.366,18.968 110.143,18.806C108.682,17.771 107.095,16.955 105.381,16.356C103.666,15.758 101.835,15.459 99.888,15.459C97.372,15.459 95.044,15.935 92.904,16.889C90.763,17.842 88.907,19.12 87.335,20.723C85.762,22.326 84.53,24.172 83.637,26.262C82.745,28.351 82.298,30.532 82.298,32.805C82.298,35.219 82.755,37.476 83.668,39.576C84.581,41.675 85.818,43.501 87.38,45.053C88.942,46.605 90.763,47.828 92.843,48.72C94.922,49.613 97.139,50.059 99.492,50.059C100.973,50.059 102.449,49.821 103.92,49.344C105.391,48.867 106.887,48.304 108.409,47.655L108.409,36.669Z" style="fill:white;fill-rule:nonzero;"/></g><g><path d="M153.356,10.103C154.289,10.103 154.756,10.59 154.756,11.563L154.756,14.576C154.756,14.962 154.639,15.296 154.406,15.58C154.173,15.864 153.802,16.006 153.295,16.006L128.767,16.006L128.767,28.514L148.061,28.514C148.426,28.514 148.74,28.62 149.004,28.833C149.268,29.046 149.4,29.406 149.4,29.914L149.4,33.018C149.4,33.383 149.288,33.707 149.065,33.991C148.842,34.275 148.507,34.417 148.061,34.417L128.767,34.417L128.767,49.39L153.417,49.39C154.35,49.39 154.817,49.867 154.817,50.82L154.817,53.954C154.817,54.847 154.37,55.293 153.478,55.293L124.202,55.293C123.31,55.293 122.864,54.867 122.864,54.015L122.864,11.502C122.864,10.569 123.31,10.103 124.202,10.103L153.356,10.103Z" style="fill:white;fill-rule:nonzero;"/></g><g><path d="M166.35,32.652C166.35,34.255 166.558,35.792 166.974,37.263C167.39,38.734 167.973,40.113 168.724,41.401C169.475,42.69 170.377,43.861 171.432,44.916C172.487,45.971 173.659,46.874 174.947,47.625C176.235,48.375 177.615,48.959 179.086,49.375C180.557,49.79 182.093,49.998 183.696,49.998C185.279,49.998 186.81,49.79 188.291,49.375C189.772,48.959 191.152,48.375 192.43,47.625C193.708,46.874 194.875,45.971 195.93,44.916C196.985,43.861 197.887,42.69 198.638,41.401C199.389,40.113 199.972,38.734 200.388,37.263C200.804,35.792 201.012,34.255 201.012,32.652C201.012,30.258 200.555,28.012 199.642,25.912C198.729,23.812 197.492,21.981 195.93,20.419C194.368,18.857 192.537,17.619 190.437,16.706C188.337,15.793 186.09,15.337 183.696,15.337C182.093,15.337 180.557,15.545 179.086,15.961C177.615,16.377 176.235,16.96 174.947,17.71C173.659,18.461 172.487,19.364 171.432,20.419C170.377,21.474 169.475,22.64 168.724,23.919C167.973,25.197 167.39,26.576 166.974,28.057C166.558,29.538 166.35,31.07 166.35,32.652ZM183.757,9.494C185.887,9.494 187.941,9.768 189.919,10.316C191.898,10.863 193.744,11.644 195.458,12.659C197.172,13.673 198.74,14.885 200.16,16.295C201.58,17.705 202.792,19.278 203.796,21.012C204.801,22.747 205.582,24.608 206.139,26.597C206.697,28.585 206.976,30.654 206.976,32.805C206.976,34.935 206.702,36.989 206.155,38.967C205.607,40.945 204.826,42.791 203.811,44.505C202.797,46.22 201.585,47.782 200.175,49.192C198.765,50.602 197.198,51.809 195.473,52.813C193.749,53.818 191.892,54.594 189.904,55.141C187.916,55.689 185.847,55.963 183.696,55.963C181.546,55.963 179.481,55.689 177.503,55.141C175.525,54.594 173.679,53.812 171.965,52.798C170.251,51.784 168.688,50.572 167.278,49.162C165.868,47.752 164.661,46.189 163.657,44.475C162.653,42.761 161.877,40.915 161.329,38.937C160.781,36.958 160.507,34.894 160.507,32.744C160.507,30.613 160.781,28.559 161.329,26.581C161.877,24.603 162.658,22.752 163.672,21.028C164.687,19.303 165.899,17.731 167.309,16.311C168.719,14.891 170.286,13.678 172.01,12.674C173.735,11.67 175.586,10.889 177.564,10.331C179.542,9.773 181.607,9.494 183.757,9.494Z" style="fill:white;fill-rule:nonzero;"/></g><g><path d="M247.146,22.367C247.146,24.111 246.806,25.755 246.127,27.296C245.447,28.838 244.498,30.157 243.281,31.253C244.214,31.8 245.061,32.46 245.822,33.231C246.583,34.002 247.237,34.849 247.785,35.772C248.333,36.695 248.754,37.684 249.048,38.739C249.342,39.794 249.489,40.889 249.489,42.025C249.489,43.79 249.165,45.474 248.515,47.077C247.866,48.68 246.974,50.09 245.837,51.307C244.701,52.524 243.357,53.493 241.805,54.213C240.253,54.933 238.574,55.293 236.769,55.293L216.897,55.293C216.491,55.293 216.157,55.182 215.893,54.959C215.629,54.736 215.497,54.401 215.497,53.954L215.497,11.563C215.497,10.59 215.964,10.103 216.897,10.103L234.76,10.103C236.525,10.103 238.159,10.417 239.66,11.046C241.161,11.675 242.47,12.537 243.586,13.633C244.701,14.728 245.574,16.022 246.203,17.513C246.832,19.004 247.146,20.622 247.146,22.367ZM221.31,34.935L221.31,49.481L236.708,49.481C237.641,49.481 238.524,49.278 239.356,48.872C240.187,48.467 240.913,47.924 241.531,47.244C242.15,46.565 242.637,45.773 242.992,44.871C243.347,43.968 243.525,43.019 243.525,42.025C243.525,41.072 243.347,40.169 242.992,39.317C242.637,38.465 242.155,37.714 241.547,37.065C240.938,36.416 240.218,35.898 239.386,35.513C238.554,35.127 237.662,34.935 236.708,34.935L221.31,34.935ZM241.181,22.367C241.181,21.433 241.024,20.571 240.71,19.78C240.395,18.989 239.949,18.304 239.371,17.726C238.793,17.148 238.108,16.701 237.317,16.387C236.525,16.072 235.653,15.915 234.7,15.915L221.31,15.915L221.31,29.122L234.639,29.122C235.572,29.122 236.439,28.95 237.241,28.605C238.042,28.26 238.732,27.783 239.31,27.175C239.888,26.566 240.345,25.851 240.679,25.029C241.014,24.208 241.181,23.32 241.181,22.367Z" style="fill:white;fill-rule:nonzero;"/></g><g><path d="M282.69,19.962C282.406,19.78 281.939,19.425 281.29,18.897C280.641,18.37 279.845,17.832 278.901,17.284C277.958,16.737 276.898,16.245 275.721,15.809C274.545,15.372 273.277,15.154 271.917,15.154C270.315,15.154 268.935,15.347 267.779,15.732C266.622,16.118 265.669,16.63 264.918,17.269C264.167,17.908 263.615,18.629 263.26,19.43C262.905,20.231 262.727,21.038 262.727,21.849C262.727,22.985 263.102,23.939 263.853,24.71C264.604,25.481 265.598,26.15 266.835,26.718C268.073,27.286 269.478,27.799 271.05,28.255C272.622,28.712 274.225,29.193 275.858,29.701C277.491,30.208 279.094,30.776 280.666,31.405C282.239,32.034 283.644,32.815 284.881,33.748C286.119,34.681 287.113,35.797 287.863,37.095C288.614,38.394 288.989,39.966 288.989,41.812C288.989,43.943 288.548,45.875 287.666,47.61C286.783,49.344 285.576,50.825 284.044,52.053C282.513,53.28 280.712,54.228 278.643,54.898C276.573,55.567 274.352,55.902 271.978,55.902C270.396,55.902 268.829,55.725 267.277,55.37C265.725,55.015 264.233,54.497 262.803,53.818C261.373,53.138 260.039,52.311 258.801,51.337C257.564,50.364 256.458,49.248 255.484,47.99C255.221,47.665 255.094,47.341 255.104,47.016C255.114,46.691 255.292,46.387 255.636,46.103L258.041,44.095C258.385,43.811 258.72,43.684 259.045,43.714C259.369,43.745 259.664,43.922 259.927,44.247L260.323,44.642C261.175,45.596 262.144,46.423 263.229,47.123C264.315,47.823 265.4,48.401 266.485,48.857C267.571,49.314 268.61,49.653 269.605,49.877C270.599,50.1 271.441,50.211 272.13,50.211C273.368,50.211 274.636,50.049 275.934,49.725C277.233,49.4 278.42,48.903 279.495,48.233C280.57,47.564 281.453,46.717 282.142,45.692C282.832,44.668 283.177,43.466 283.177,42.086C283.177,40.93 282.837,39.951 282.158,39.15C281.478,38.348 280.56,37.648 279.403,37.05C278.247,36.451 276.893,35.914 275.341,35.437C273.789,34.96 272.13,34.458 270.365,33.931C267.931,33.22 265.841,32.475 264.096,31.694C262.352,30.913 260.916,30.05 259.79,29.107C258.664,28.164 257.838,27.109 257.31,25.942C256.783,24.776 256.519,23.462 256.519,22.001C256.519,20.155 256.889,18.466 257.63,16.934C258.37,15.403 259.42,14.079 260.779,12.963C262.139,11.847 263.777,10.98 265.694,10.361C267.611,9.742 269.757,9.433 272.13,9.433C273.408,9.433 274.737,9.595 276.117,9.92C277.496,10.245 278.841,10.696 280.149,11.274C281.458,11.852 282.685,12.542 283.831,13.344C284.978,14.145 285.967,15.033 286.798,16.006C287.082,16.311 287.229,16.63 287.24,16.965C287.25,17.3 287.093,17.619 286.768,17.924L284.607,19.993C284.283,20.297 283.953,20.439 283.618,20.419C283.284,20.399 282.974,20.246 282.69,19.962Z" style="fill:white;fill-rule:nonzero;"/></g><g><path d="M293.311,11.563C293.027,11.137 292.91,10.787 292.961,10.513C293.011,10.24 293.27,10.103 293.737,10.103L298.667,10.103C298.849,10.123 299.001,10.143 299.123,10.163C299.245,10.184 299.356,10.229 299.458,10.3C299.559,10.371 299.661,10.488 299.762,10.65C299.864,10.813 299.996,11.036 300.158,11.32L311.052,30.218L311.144,30.218L322.251,11.107C322.474,10.701 322.677,10.442 322.86,10.331C323.042,10.219 323.286,10.143 323.59,10.103L328.672,10.103C329.119,10.103 329.342,10.285 329.342,10.65C329.342,10.833 329.23,11.097 329.007,11.442C327.749,13.45 326.501,15.494 325.264,17.574C324.026,19.653 322.794,21.743 321.566,23.842C320.339,25.942 319.101,28.032 317.854,30.111C316.606,32.191 315.343,34.235 314.065,36.243L314.065,53.833C314.065,54.807 313.619,55.293 312.726,55.293L309.47,55.293C308.618,55.293 308.192,54.807 308.192,53.833L308.192,36.395L293.311,11.563Z" style="fill:white;fill-rule:nonzero;"/></g><g><path d="M361.264,19.962C360.98,19.78 360.514,19.425 359.865,18.897C359.215,18.37 358.419,17.832 357.476,17.284C356.532,16.737 355.472,16.245 354.296,15.809C353.119,15.372 351.851,15.154 350.492,15.154C348.889,15.154 347.509,15.347 346.353,15.732C345.197,16.118 344.243,16.63 343.492,17.269C342.742,17.908 342.189,18.629 341.834,19.43C341.479,20.231 341.301,21.038 341.301,21.849C341.301,22.985 341.677,23.939 342.427,24.71C343.178,25.481 344.172,26.15 345.41,26.718C346.647,27.286 348.052,27.799 349.624,28.255C351.197,28.712 352.799,29.193 354.433,29.701C356.066,30.208 357.668,30.776 359.241,31.405C360.813,32.034 362.218,32.815 363.455,33.748C364.693,34.681 365.687,35.797 366.438,37.095C367.188,38.394 367.564,39.966 367.564,41.812C367.564,43.943 367.122,45.875 366.24,47.61C365.357,49.344 364.15,50.825 362.619,52.053C361.087,53.28 359.286,54.228 357.217,54.898C355.148,55.567 352.926,55.902 350.553,55.902C348.97,55.902 347.403,55.725 345.851,55.37C344.299,55.015 342.808,54.497 341.377,53.818C339.947,53.138 338.613,52.311 337.376,51.337C336.138,50.364 335.032,49.248 334.059,47.99C333.795,47.665 333.668,47.341 333.678,47.016C333.688,46.691 333.866,46.387 334.211,46.103L336.615,44.095C336.96,43.811 337.294,43.684 337.619,43.714C337.944,43.745 338.238,43.922 338.502,44.247L338.897,44.642C339.749,45.596 340.718,46.423 341.803,47.123C342.889,47.823 343.974,48.401 345.06,48.857C346.145,49.314 347.185,49.653 348.179,49.877C349.173,50.1 350.015,50.211 350.705,50.211C351.942,50.211 353.21,50.049 354.509,49.725C355.807,49.4 356.994,48.903 358.069,48.233C359.144,47.564 360.027,46.717 360.717,45.692C361.406,44.668 361.751,43.466 361.751,42.086C361.751,40.93 361.411,39.951 360.732,39.15C360.052,38.348 359.134,37.648 357.978,37.05C356.821,36.451 355.467,35.914 353.915,35.437C352.363,34.96 350.705,34.458 348.94,33.931C346.505,33.22 344.415,32.475 342.671,31.694C340.926,30.913 339.491,30.05 338.365,29.107C337.239,28.164 336.412,27.109 335.884,25.942C335.357,24.776 335.093,23.462 335.093,22.001C335.093,20.155 335.464,18.466 336.204,16.934C336.945,15.403 337.994,14.079 339.354,12.963C340.713,11.847 342.351,10.98 344.268,10.361C346.186,9.742 348.331,9.433 350.705,9.433C351.983,9.433 353.312,9.595 354.691,9.92C356.071,10.245 357.415,10.696 358.723,11.274C360.032,11.852 361.259,12.542 362.406,13.344C363.552,14.145 364.541,15.033 365.373,16.006C365.657,16.311 365.804,16.63 365.814,16.965C365.824,17.3 365.667,17.619 365.342,17.924L363.182,19.993C362.857,20.297 362.527,20.439 362.193,20.419C361.858,20.399 361.548,20.246 361.264,19.962Z" style="fill:white;fill-rule:nonzero;"/></g><g><g><path d="M375.405,55.484L375.405,9.777L393.492,9.777C398.324,9.777 402.568,10.757 406.224,12.716C409.881,14.674 412.71,17.373 414.713,20.812C416.759,24.251 417.782,28.191 417.782,32.631C417.782,37.071 416.759,41.01 414.713,44.449C412.71,47.888 409.881,50.587 406.224,52.546C402.568,54.505 398.324,55.484 393.492,55.484L375.405,55.484ZM378.735,52.48L393.231,52.48C397.54,52.48 401.284,51.632 404.461,49.934C407.639,48.236 410.098,45.907 411.84,42.947C413.581,39.944 414.451,36.505 414.451,32.631C414.451,28.756 413.581,25.339 411.84,22.379C410.098,19.376 407.639,17.025 404.461,15.327C401.284,13.63 397.54,12.781 393.231,12.781L378.735,12.781L378.735,52.48Z" style="fill:rgb(252,0,143);fill-rule:nonzero;"/><path d="M448.732,55.81C445.336,55.81 442.18,55.245 439.264,54.113C436.391,52.937 433.866,51.305 431.689,49.216C429.556,47.083 427.902,44.623 426.727,41.837C425.552,39.008 424.964,35.939 424.964,32.631C424.964,29.322 425.552,26.275 426.727,23.489C427.902,20.66 429.556,18.2 431.689,16.111C433.866,13.978 436.391,12.346 439.264,11.214C442.18,10.038 445.336,9.451 448.732,9.451C452.127,9.451 455.261,10.038 458.134,11.214C461.051,12.346 463.575,13.956 465.708,16.046C467.841,18.135 469.495,20.595 470.671,23.424C471.89,26.21 472.499,29.279 472.499,32.631C472.499,35.982 471.89,39.073 470.671,41.903C469.495,44.688 467.841,47.126 465.708,49.216C463.575,51.305 461.051,52.937 458.134,54.113C455.261,55.245 452.127,55.81 448.732,55.81ZM448.732,52.742C451.648,52.742 454.347,52.241 456.828,51.24C459.309,50.239 461.464,48.824 463.292,46.996C465.121,45.167 466.535,43.034 467.537,40.597C468.581,38.159 469.104,35.504 469.104,32.631C469.104,29.714 468.581,27.059 467.537,24.665C466.535,22.227 465.121,20.094 463.292,18.266C461.464,16.437 459.309,15.023 456.828,14.021C454.347,13.02 451.648,12.52 448.732,12.52C445.815,12.52 443.116,13.02 440.635,14.021C438.154,15.023 435.977,16.437 434.105,18.266C432.277,20.094 430.841,22.227 429.796,24.665C428.795,27.059 428.294,29.714 428.294,32.631C428.294,35.504 428.795,38.159 429.796,40.597C430.841,43.034 432.277,45.167 434.105,46.996C435.977,48.824 438.154,50.239 440.635,51.24C443.116,52.241 445.815,52.742 448.732,52.742Z" style="fill:rgb(252,0,143);fill-rule:nonzero;"/><path d="M503.384,55.81C499.988,55.81 496.832,55.245 493.916,54.113C491.043,52.937 488.54,51.305 486.407,49.216C484.274,47.126 482.62,44.688 481.444,41.903C480.269,39.073 479.681,35.982 479.681,32.631C479.681,29.279 480.269,26.21 481.444,23.424C482.62,20.595 484.274,18.135 486.407,16.046C488.583,13.956 491.108,12.346 493.981,11.214C496.854,10.038 499.988,9.451 503.384,9.451C506.605,9.451 509.608,9.973 512.394,11.018C515.224,12.063 517.64,13.651 519.642,15.784L517.553,17.939C515.594,16.024 513.417,14.653 511.023,13.826C508.673,12.955 506.17,12.52 503.514,12.52C500.598,12.52 497.877,13.02 495.352,14.021C492.871,15.023 490.695,16.437 488.823,18.266C486.995,20.094 485.558,22.227 484.513,24.665C483.512,27.102 483.012,29.758 483.012,32.631C483.012,35.504 483.512,38.159 484.513,40.597C485.558,43.034 486.995,45.167 488.823,46.996C490.695,48.824 492.871,50.239 495.352,51.24C497.877,52.241 500.598,52.742 503.514,52.742C506.17,52.742 508.673,52.328 511.023,51.501C513.417,50.63 515.594,49.216 517.553,47.257L519.642,49.411C517.64,51.544 515.224,53.155 512.394,54.243C509.608,55.288 506.605,55.81 503.384,55.81Z" style="fill:rgb(252,0,143);fill-rule:nonzero;"/><path d="M542.625,55.81C539.23,55.81 536.009,55.245 532.962,54.113C529.958,52.937 527.629,51.436 525.975,49.607L527.477,47.126C529.044,48.737 531.177,50.108 533.876,51.24C536.618,52.328 539.513,52.872 542.56,52.872C545.607,52.872 548.088,52.48 550.004,51.697C551.963,50.87 553.399,49.782 554.313,48.432C555.271,47.083 555.75,45.581 555.75,43.927C555.75,41.968 555.227,40.401 554.183,39.225C553.138,38.05 551.767,37.114 550.069,36.418C548.371,35.721 546.521,35.134 544.519,34.655C542.517,34.176 540.492,33.675 538.446,33.153C536.401,32.587 534.529,31.869 532.831,30.998C531.133,30.128 529.762,28.952 528.717,27.472C527.716,25.949 527.216,23.99 527.216,21.596C527.216,19.419 527.782,17.417 528.913,15.589C530.045,13.76 531.808,12.28 534.202,11.148C536.596,10.017 539.665,9.451 543.409,9.451C545.934,9.451 548.415,9.821 550.853,10.561C553.334,11.301 555.445,12.302 557.186,13.564L555.946,16.241C554.03,14.936 551.963,13.978 549.743,13.368C547.566,12.716 545.455,12.389 543.409,12.389C540.492,12.389 538.076,12.803 536.161,13.63C534.246,14.457 532.831,15.567 531.917,16.96C531.003,18.309 530.546,19.833 530.546,21.53C530.546,23.489 531.046,25.056 532.048,26.232C533.092,27.407 534.463,28.343 536.161,29.039C537.859,29.736 539.731,30.324 541.777,30.802C543.822,31.281 545.847,31.804 547.849,32.369C549.851,32.892 551.701,33.588 553.399,34.459C555.097,35.329 556.468,36.505 557.513,37.985C558.557,39.465 559.08,41.38 559.08,43.731C559.08,45.864 558.492,47.866 557.317,49.738C556.142,51.566 554.335,53.046 551.897,54.178C549.503,55.266 546.413,55.81 542.625,55.81Z" style="fill:rgb(252,0,143);fill-rule:nonzero;"/></g></g></g></svg>